<?xml version="1.0" standalone="no"?>
<!DOCTYPE svg PUBLIC "-//W3C//DTD SVG 20010904//EN"
 "http://www.w3.org/TR/2001/REC-SVG-20010904/DTD/svg10.dtd">
<svg version="1.0" xmlns="http://www.w3.org/2000/svg"
 width="30px" height="30px" viewBox="0 0 878.000000 1280.000000"
 preserveAspectRatio="xMidYMid meet">
<metadata>
Created by potrace 1.15, written by Peter Selinger 2001-2017
</metadata>
<g transform="translate(0.000000,1280.000000) scale(0.100000,-0.100000)"
fill="#3f51b5" stroke="none">
<path d="M1300 12783 c0 -49 310 -455 617 -806 87 -100 188 -218 223 -262 36
-44 107 -127 160 -185 177 -197 568 -684 765 -954 146 -201 309 -490 401 -713
48 -114 88 -256 104 -364 l13 -87 366 -126 c505 -174 616 -206 758 -222 83 -9
127 1 168 38 60 52 50 60 -88 72 -138 11 -288 116 -581 404 -255 252 -704 738
-692 749 8 8 90 -39 241 -137 315 -204 466 -270 616 -270 73 0 80 -12 72 -125
-5 -76 -3 -103 11 -140 22 -57 57 -85 106 -85 51 0 92 19 174 79 59 44 75 51
115 51 49 0 94 -22 144 -68 46 -44 38 -68 -65 -181 -67 -74 -72 -91 -25 -91
47 0 124 28 253 93 l112 56 51 -54 c29 -30 58 -70 66 -90 14 -31 13 -39 -6
-87 -11 -29 -34 -115 -50 -190 -34 -163 -49 -204 -102 -280 -55 -80 -36 -98
59 -58 110 48 242 167 307 277 52 90 83 95 120 20 18 -36 18 -43 3 -163 -21
-160 -59 -322 -92 -388 -14 -28 -67 -93 -120 -148 -52 -53 -94 -102 -94 -109
0 -42 303 84 397 165 49 43 98 118 182 281 33 66 68 128 76 139 19 25 40 15
65 -33 35 -70 28 -129 -44 -344 -70 -208 -100 -316 -92 -325 11 -10 93 56 227
185 195 187 212 195 222 107 4 -42 12 -54 56 -95 37 -34 51 -55 51 -73 0 -16
11 -38 26 -53 14 -14 23 -27 21 -29 -9 -9 -136 -27 -513 -74 -439 -54 -496
-64 -516 -87 -10 -13 -7 -20 20 -44 32 -29 34 -29 156 -29 100 0 421 23 776
55 86 8 54 0 -220 -56 -252 -51 -373 -82 -397 -101 -10 -8 -7 -19 10 -48 l22
-38 -27 -25 c-53 -49 -77 -208 -38 -247 49 -49 190 4 220 82 24 65 33 76 80
102 26 14 89 37 141 51 88 23 389 78 395 72 5 -4 -34 -177 -52 -232 -9 -27
-34 -92 -56 -143 -66 -154 -38 -137 119 75 59 79 111 143 116 143 38 0 -102
-345 -199 -492 -26 -39 -54 -94 -61 -122 -8 -29 -18 -155 -23 -291 -16 -387
-27 -522 -46 -558 -9 -18 -22 -79 -29 -137 -12 -91 -19 -116 -59 -192 -25 -49
-49 -107 -52 -130 -7 -50 -26 -82 -64 -115 -35 -29 -56 -81 -80 -197 -22 -109
-32 -137 -56 -156 -18 -16 -113 -208 -134 -273 -65 -203 313 118 488 415 139
237 200 438 262 874 31 220 74 443 116 604 52 197 74 428 74 777 l0 172 33 6
c311 53 847 97 1406 115 321 10 374 18 369 53 -3 24 9 21 -254 71 -418 81
-757 116 -1327 138 -187 7 -324 16 -332 23 -6 5 -36 71 -65 145 -29 74 -110
254 -180 400 -181 376 -213 468 -176 499 27 23 145 32 258 21 129 -13 233 -38
330 -81 140 -62 194 -48 163 40 -60 172 -363 440 -749 661 -236 136 -413 201
-617 227 -109 14 -221 17 -604 17 -416 1 -481 -1 -565 -18 -146 -28 -229 -31
-292 -11 -59 20 -335 155 -443 218 -303 176 -764 533 -1025 796 -91 91 -289
303 -440 471 -700 778 -992 1090 -1093 1171 -54 43 -67 47 -67 22z"/>
<path d="M2740 9491 c0 -17 82 -73 225 -152 72 -40 166 -96 210 -124 172 -111
233 -192 689 -930 235 -382 347 -544 441 -644 69 -73 98 -93 123 -84 18 7 15
65 -7 130 -32 94 -41 136 -52 245 -10 108 -3 272 12 262 5 -3 9 -15 9 -27 0
-35 77 -293 106 -352 27 -58 62 -85 107 -85 47 0 52 22 29 118 -20 81 -54 293
-49 298 1 1 37 -66 80 -151 85 -167 133 -233 161 -222 48 19 64 172 33 312 -9
38 -15 71 -14 72 1 1 36 -39 77 -89 57 -70 76 -87 79 -72 2 10 1 80 -1 155 -4
123 -7 142 -31 191 -42 86 -96 116 -382 216 -93 33 -230 83 -302 111 -220 85
-225 81 -233 -170 -3 -92 -8 -170 -12 -174 -3 -4 -14 5 -23 19 -31 48 -155
416 -170 508 -6 36 -5 39 11 34 11 -3 37 -9 59 -14 22 -5 137 -39 255 -75 280
-85 352 -100 446 -95 71 3 78 6 104 35 27 30 50 87 50 126 0 25 -56 48 -361
152 -925 314 -1669 527 -1669 476z"/>
<path d="M5020 7882 c-43 -62 -121 -142 -164 -166 -22 -13 -76 -34 -119 -45
-168 -46 -232 -106 -196 -185 21 -46 -27 -100 -361 -398 -304 -271 -429 -436
-481 -634 -25 -97 -38 -319 -20 -352 l12 -23 41 23 c55 31 158 120 445 386
133 123 276 252 318 287 152 126 382 275 425 275 61 0 564 -594 739 -873 180
-286 243 -475 261 -780 12 -210 19 -275 30 -282 17 -10 94 201 141 390 26 102
31 146 36 291 21 611 -121 1042 -495 1513 -166 208 -460 518 -559 589 l-29 20
-24 -36z"/>
<path d="M5059 6617 c-143 -200 -400 -506 -898 -1073 l-194 -221 -151 -6
c-174 -6 -246 -20 -246 -48 0 -10 12 -24 28 -31 22 -11 27 -20 26 -50 -2 -62
-55 -157 -131 -234 -46 -45 -73 -82 -78 -102 -17 -79 -442 -461 -584 -524 -58
-26 -85 -20 -229 52 -190 95 -372 223 -767 540 -706 567 -1129 800 -1528 841
-162 16 -327 -10 -303 -49 3 -6 39 -23 79 -38 155 -58 306 -163 672 -468 646
-539 989 -852 1102 -1006 86 -117 111 -179 144 -347 42 -219 101 -370 190
-483 23 -30 82 -97 131 -148 150 -156 182 -260 243 -782 111 -960 109 -946
110 -1330 0 -465 -24 -686 -100 -930 -38 -120 -43 -167 -21 -176 76 -29 257
317 341 653 111 441 149 985 181 2641 8 399 -11 347 157 418 224 95 414 120
722 95 246 -20 272 -29 242 -80 -22 -38 -22 -41 9 -41 40 0 127 91 219 230
132 200 168 225 529 375 l138 58 37 -18 c20 -9 79 -41 131 -70 259 -145 321
-276 370 -783 27 -276 43 -352 75 -352 56 0 152 471 211 1030 22 214 30 604
13 655 -26 76 -68 52 -185 -106 -88 -120 -166 -189 -272 -242 -83 -41 -266
-96 -279 -83 -7 7 18 28 127 105 274 196 457 417 495 597 57 267 -54 733 -259
1092 -99 174 -163 257 -371 484 l-52 56 -74 -101z m155 -455 c-2 -551 -221
-1073 -626 -1497 -277 -291 -585 -484 -993 -625 -450 -156 -582 -228 -745
-412 -49 -55 -98 -120 -109 -144 -27 -56 -27 -123 -2 -246 46 -224 70 -504 62
-743 l-3 -120 -28 175 c-69 438 -135 732 -176 779 -21 24 -28 26 -96 24 -40
-1 -93 -5 -117 -8 l-44 -7 44 54 c89 107 197 205 321 290 69 48 136 100 147
114 46 59 40 105 -24 173 -25 27 -45 55 -45 64 0 19 167 105 220 113 27 5 56
-3 128 -35 99 -44 152 -52 152 -25 0 9 -16 44 -35 78 -47 85 -46 101 18 163
88 86 131 107 212 108 67 0 74 -2 144 -47 77 -50 108 -58 117 -34 3 8 -11 61
-30 118 -42 120 -44 158 -15 200 12 17 76 75 142 130 l120 99 69 -76 c39 -41
89 -87 113 -100 48 -28 133 -60 141 -52 3 3 -19 54 -49 113 -68 136 -89 196
-89 257 0 54 12 73 53 82 35 8 86 65 129 146 17 33 38 63 45 65 7 3 46 -28 87
-69 101 -101 222 -157 297 -138 23 6 23 7 -18 59 -100 126 -177 281 -166 333
4 15 34 67 67 116 102 149 118 158 163 99 46 -60 171 -124 195 -100 5 5 -9 52
-33 114 -49 127 -54 199 -20 270 33 66 253 314 267 300 7 -7 11 -65 10 -158z"/>
</g>
</svg>
